<?xml version="1.0" ?><svg style="enable-background:new 0 0 100 100;" version="1.1" viewBox="0 0 100 100" xml:space="preserve" xmlns="http://www.w3.org/2000/svg" xmlns:xlink="http://www.w3.org/1999/xlink"><style type="text/css">
	.st0{display:none;}
	.st1{display:inline;fill:#F28888;}
	.st2{display:inline;}
	.st3{display:none;fill:#848484;}
</style><g class="st0" id="Back"><rect class="st1" height="640" width="1962" x="-285" y="-347"/></g><g id="Layer_1"><g><path d="M92,0H74.43c-3.083,0-5.663,2.336-5.97,5.403l-0.37,3.697C68.039,9.611,67.609,10,67.095,10H65.82    c-0.477,0-0.887-0.336-0.981-0.804l-0.874-4.373C63.404,2.019,60.941,0,58.081,0H41.919c-2.86,0-5.323,2.019-5.883,4.823    l-0.875,4.373C35.067,9.664,34.657,10,34.18,10h-1.275c-0.514,0-0.944-0.389-0.995-0.901l-0.37-3.696    C31.234,2.336,28.653,0,25.57,0H8C3.582,0,0,3.582,0,8v84c0,4.418,3.582,8,8,8h84c4.418,0,8-3.582,8-8V8C100,3.582,96.418,0,92,0z     M98,92c0,3.308-2.692,6-6,6H8c-3.308,0-6-2.692-6-6V8c0-3.308,2.692-6,6-6h17.57c2.064,0,3.775,1.549,3.98,3.602l0.37,3.696    C30.074,10.839,31.357,12,32.905,12h1.275c1.425,0,2.662-1.014,2.942-2.412l0.875-4.373C38.369,3.352,40.019,2,41.919,2h16.162    c1.9,0,3.55,1.352,3.922,3.216l0.874,4.372C63.157,10.986,64.394,12,65.82,12h1.275c1.548,0,2.831-1.161,2.985-2.701l0.37-3.697    C70.655,3.549,72.366,2,74.43,2H92c3.308,0,6,2.692,6,6V92z"/><path d="M86,70H14c-3.314,0-6,2.686-6,6v11c0,3.314,2.686,6,6,6h72c3.314,0,6-2.686,6-6V76C92,72.686,89.314,70,86,70z M90,87    c0,2.206-1.794,4-4,4H14c-2.206,0-4-1.794-4-4V76c0-2.206,1.794-4,4-4h72c2.206,0,4,1.794,4,4V87z"/><path d="M86,43.5H14c-3.314,0-6,2.686-6,6v11c0,3.314,2.686,6,6,6h72c3.314,0,6-2.686,6-6v-11C92,46.186,89.314,43.5,86,43.5z     M90,60.5c0,2.206-1.794,4-4,4H14c-2.206,0-4-1.794-4-4v-11c0-2.206,1.794-4,4-4h72c2.206,0,4,1.794,4,4V60.5z"/><path d="M86,17H14c-3.314,0-6,2.686-6,6v11c0,3.314,2.686,6,6,6h72c3.314,0,6-2.686,6-6V23C92,19.686,89.314,17,86,17z M90,34    c0,2.206-1.794,4-4,4H14c-2.206,0-4-1.794-4-4V23c0-2.206,1.794-4,4-4h72c2.206,0,4,1.794,4,4V34z"/></g></g></svg>